# xmcd CD database file
#
# Track frame offsets:
#	187
#	27314
#	49119
#	55247
#	70102
#	95304
#	122429
#	145899
#	156992
#	184094
#
# Disc length: 2680 seconds
#
# Revision: 7
# Processed by: cddbd v1.5.2PL0 Copyright (c) Steve Scherf et al.
# Submitted via: jack 3.1.1
#
DISCID=840a760a
DTITLE=Blind Guardian - Tales from the Twilight World
DYEAR=1990
DGENRE=Heavy Metal
TTITLE0=Traveler in Time
TTITLE1=Welcome to Dying
TTITLE2=Weird Dreams
TTITLE3=Lord of the Rings
TTITLE4=Goodbye My Friend
TTITLE5=Lost in the Twilight Hall
TTITLE6=Tommyknockers
TTITLE7=Altair 4
TTITLE8=The Last Candle
TTITLE9=Run for the Night (Live)
EXTD=YEAR: 1990
EXTT0=
EXTT1=
EXTT2=
EXTT3=
EXTT4=
EXTT5=
EXTT6=
EXTT7=
EXTT8=
EXTT9=
PLAYORDER=
